<mxfile host="app.diagrams.net" modified="2024-05-13T04:45:35.347Z" agent="Mozilla/5.0 (Windows NT 10.0; Win64; x64; rv:125.0) Gecko/20100101 Firefox/125.0" etag="glVO_c3LfR5RMY_rulMO" version="24.4.0" type="github">
  <diagram name="Page-1" id="wVEeZeIXeSMBTgkAD9_Y">
    <mxGraphModel dx="638" dy="340" grid="1" gridSize="10" guides="1" tooltips="1" connect="1" arrows="1" fold="1" page="1" pageScale="1" pageWidth="850" pageHeight="1100" math="0" shadow="0">
      <root>
        <mxCell id="0" />
        <mxCell id="1" parent="0" />
        <mxCell id="o2s6CwllAGiVQk2Gemuw-1" value="" style="ellipse;whiteSpace=wrap;html=1;aspect=fixed;strokeColor=#70A0FF;fillColor=#70A0FF;" vertex="1" parent="1">
          <mxGeometry x="360" y="270" width="20" height="20" as="geometry" />
        </mxCell>
        <mxCell id="o2s6CwllAGiVQk2Gemuw-2" value="" style="endArrow=none;html=1;rounded=0;strokeColor=#000000;" edge="1" parent="1" source="o2s6CwllAGiVQk2Gemuw-4" target="o2s6CwllAGiVQk2Gemuw-1">
          <mxGeometry width="50" height="50" relative="1" as="geometry">
            <mxPoint x="317" y="333" as="sourcePoint" />
            <mxPoint x="500" y="330" as="targetPoint" />
          </mxGeometry>
        </mxCell>
        <mxCell id="o2s6CwllAGiVQk2Gemuw-43" value="5" style="edgeLabel;html=1;align=center;verticalAlign=middle;resizable=0;points=[];" vertex="1" connectable="0" parent="o2s6CwllAGiVQk2Gemuw-2">
          <mxGeometry x="0.0027" y="-1" relative="1" as="geometry">
            <mxPoint x="-6" as="offset" />
          </mxGeometry>
        </mxCell>
        <mxCell id="o2s6CwllAGiVQk2Gemuw-3" value="" style="endArrow=none;html=1;rounded=0;strokeColor=#000000;" edge="1" parent="1" source="o2s6CwllAGiVQk2Gemuw-5" target="o2s6CwllAGiVQk2Gemuw-1">
          <mxGeometry width="50" height="50" relative="1" as="geometry">
            <mxPoint x="410" y="370" as="sourcePoint" />
            <mxPoint x="420" y="280" as="targetPoint" />
          </mxGeometry>
        </mxCell>
        <mxCell id="o2s6CwllAGiVQk2Gemuw-45" value="4" style="edgeLabel;html=1;align=center;verticalAlign=middle;resizable=0;points=[];" vertex="1" connectable="0" parent="o2s6CwllAGiVQk2Gemuw-3">
          <mxGeometry x="-0.3219" relative="1" as="geometry">
            <mxPoint x="-3" y="-5" as="offset" />
          </mxGeometry>
        </mxCell>
        <mxCell id="o2s6CwllAGiVQk2Gemuw-4" value="E" style="ellipse;whiteSpace=wrap;html=1;aspect=fixed;strokeColor=#000000;fillColor=#000000;fontColor=#FFFFFF;" vertex="1" parent="1">
          <mxGeometry x="270" y="330" width="20" height="20" as="geometry" />
        </mxCell>
        <mxCell id="o2s6CwllAGiVQk2Gemuw-5" value="&lt;div&gt;&lt;br&gt;&lt;/div&gt;" style="ellipse;whiteSpace=wrap;html=1;aspect=fixed;strokeColor=#000000;fillColor=#171717;" vertex="1" parent="1">
          <mxGeometry x="459.99999999999994" y="330" width="20" height="20" as="geometry" />
        </mxCell>
        <mxCell id="o2s6CwllAGiVQk2Gemuw-6" value="" style="endArrow=none;html=1;rounded=0;strokeColor=#70A0FF;endFill=0;" edge="1" parent="1" source="o2s6CwllAGiVQk2Gemuw-7" target="o2s6CwllAGiVQk2Gemuw-1">
          <mxGeometry width="50" height="50" relative="1" as="geometry">
            <mxPoint x="350" y="340" as="sourcePoint" />
            <mxPoint x="480" y="330" as="targetPoint" />
          </mxGeometry>
        </mxCell>
        <mxCell id="o2s6CwllAGiVQk2Gemuw-44" value="&lt;div&gt;12&lt;/div&gt;" style="edgeLabel;html=1;align=center;verticalAlign=middle;resizable=0;points=[];fontColor=#70A0FF;" vertex="1" connectable="0" parent="o2s6CwllAGiVQk2Gemuw-6">
          <mxGeometry x="0.1333" y="1" relative="1" as="geometry">
            <mxPoint x="1" y="3" as="offset" />
          </mxGeometry>
        </mxCell>
        <mxCell id="o2s6CwllAGiVQk2Gemuw-7" value="" style="ellipse;whiteSpace=wrap;html=1;aspect=fixed;strokeColor=#70A0FF;fillColor=#70A0FF;" vertex="1" parent="1">
          <mxGeometry x="360" y="330" width="20" height="20" as="geometry" />
        </mxCell>
        <mxCell id="o2s6CwllAGiVQk2Gemuw-8" value="" style="endArrow=none;html=1;rounded=0;strokeColor=#000000;" edge="1" parent="1" source="o2s6CwllAGiVQk2Gemuw-9" target="o2s6CwllAGiVQk2Gemuw-4">
          <mxGeometry width="50" height="50" relative="1" as="geometry">
            <mxPoint x="267" y="385" as="sourcePoint" />
            <mxPoint x="294" y="350" as="targetPoint" />
          </mxGeometry>
        </mxCell>
        <mxCell id="o2s6CwllAGiVQk2Gemuw-46" value="&lt;div&gt;4&lt;/div&gt;" style="edgeLabel;html=1;align=center;verticalAlign=middle;resizable=0;points=[];" vertex="1" connectable="0" parent="o2s6CwllAGiVQk2Gemuw-8">
          <mxGeometry x="-0.0902" relative="1" as="geometry">
            <mxPoint x="-4" y="1" as="offset" />
          </mxGeometry>
        </mxCell>
        <mxCell id="o2s6CwllAGiVQk2Gemuw-9" value="E" style="ellipse;whiteSpace=wrap;html=1;aspect=fixed;strokeColor=#000000;fillColor=#FFFFFF;" vertex="1" parent="1">
          <mxGeometry x="240" y="382" width="20" height="20" as="geometry" />
        </mxCell>
        <mxCell id="o2s6CwllAGiVQk2Gemuw-10" value="" style="endArrow=none;html=1;rounded=0;strokeColor=#000000;" edge="1" parent="1" source="o2s6CwllAGiVQk2Gemuw-11" target="o2s6CwllAGiVQk2Gemuw-4">
          <mxGeometry width="50" height="50" relative="1" as="geometry">
            <mxPoint x="310" y="392" as="sourcePoint" />
            <mxPoint x="360" y="390" as="targetPoint" />
          </mxGeometry>
        </mxCell>
        <mxCell id="o2s6CwllAGiVQk2Gemuw-47" value="1" style="edgeLabel;html=1;align=center;verticalAlign=middle;resizable=0;points=[];" vertex="1" connectable="0" parent="o2s6CwllAGiVQk2Gemuw-10">
          <mxGeometry x="-0.0002" y="-1" relative="1" as="geometry">
            <mxPoint x="4" y="3" as="offset" />
          </mxGeometry>
        </mxCell>
        <mxCell id="o2s6CwllAGiVQk2Gemuw-11" value="" style="ellipse;whiteSpace=wrap;html=1;aspect=fixed;strokeColor=#000000;fillColor=#FFFFFF;" vertex="1" parent="1">
          <mxGeometry x="290" y="382" width="20" height="20" as="geometry" />
        </mxCell>
        <mxCell id="o2s6CwllAGiVQk2Gemuw-12" value="" style="endArrow=none;html=1;rounded=0;strokeColor=#000000;endFill=0;" edge="1" parent="1" source="o2s6CwllAGiVQk2Gemuw-13" target="o2s6CwllAGiVQk2Gemuw-7">
          <mxGeometry width="50" height="50" relative="1" as="geometry">
            <mxPoint x="350" y="392" as="sourcePoint" />
            <mxPoint x="320" y="360" as="targetPoint" />
          </mxGeometry>
        </mxCell>
        <mxCell id="o2s6CwllAGiVQk2Gemuw-51" value="&lt;div&gt;4&lt;/div&gt;" style="edgeLabel;html=1;align=center;verticalAlign=middle;resizable=0;points=[];" vertex="1" connectable="0" parent="o2s6CwllAGiVQk2Gemuw-12">
          <mxGeometry x="-0.0804" y="-1" relative="1" as="geometry">
            <mxPoint as="offset" />
          </mxGeometry>
        </mxCell>
        <mxCell id="o2s6CwllAGiVQk2Gemuw-13" value="E" style="ellipse;whiteSpace=wrap;html=1;aspect=fixed;strokeColor=#000000;fillColor=#000000;fontColor=#FFFFFF;" vertex="1" parent="1">
          <mxGeometry x="330" y="382" width="20" height="20" as="geometry" />
        </mxCell>
        <mxCell id="o2s6CwllAGiVQk2Gemuw-14" value="" style="endArrow=none;html=1;rounded=0;strokeColor=#000000;startArrow=none;startFill=0;endFill=0;" edge="1" parent="1" source="o2s6CwllAGiVQk2Gemuw-15" target="o2s6CwllAGiVQk2Gemuw-13">
          <mxGeometry width="50" height="50" relative="1" as="geometry">
            <mxPoint x="317" y="450" as="sourcePoint" />
            <mxPoint x="353" y="402" as="targetPoint" />
          </mxGeometry>
        </mxCell>
        <mxCell id="o2s6CwllAGiVQk2Gemuw-61" value="1" style="edgeLabel;html=1;align=center;verticalAlign=middle;resizable=0;points=[];" vertex="1" connectable="0" parent="o2s6CwllAGiVQk2Gemuw-14">
          <mxGeometry x="-0.1207" y="1" relative="1" as="geometry">
            <mxPoint as="offset" />
          </mxGeometry>
        </mxCell>
        <mxCell id="o2s6CwllAGiVQk2Gemuw-15" value="" style="ellipse;whiteSpace=wrap;html=1;aspect=fixed;strokeColor=#000000;" vertex="1" parent="1">
          <mxGeometry x="310" y="430" width="20" height="20" as="geometry" />
        </mxCell>
        <mxCell id="o2s6CwllAGiVQk2Gemuw-16" value="" style="endArrow=none;html=1;rounded=0;strokeColor=#000000;" edge="1" parent="1" source="o2s6CwllAGiVQk2Gemuw-17" target="o2s6CwllAGiVQk2Gemuw-5">
          <mxGeometry width="50" height="50" relative="1" as="geometry">
            <mxPoint x="393.18000000000006" y="447" as="sourcePoint" />
            <mxPoint x="398.18000000000006" y="391" as="targetPoint" />
          </mxGeometry>
        </mxCell>
        <mxCell id="o2s6CwllAGiVQk2Gemuw-65" value="1" style="edgeLabel;html=1;align=center;verticalAlign=middle;resizable=0;points=[];" vertex="1" connectable="0" parent="o2s6CwllAGiVQk2Gemuw-16">
          <mxGeometry x="0.0516" relative="1" as="geometry">
            <mxPoint as="offset" />
          </mxGeometry>
        </mxCell>
        <mxCell id="o2s6CwllAGiVQk2Gemuw-17" value="" style="ellipse;whiteSpace=wrap;html=1;aspect=fixed;strokeColor=#000000;fillColor=#000000;" vertex="1" parent="1">
          <mxGeometry x="429.99999999999994" y="382" width="20" height="20" as="geometry" />
        </mxCell>
        <mxCell id="o2s6CwllAGiVQk2Gemuw-18" value="" style="endArrow=none;html=1;rounded=0;strokeColor=#000000;" edge="1" parent="1" source="o2s6CwllAGiVQk2Gemuw-19" target="o2s6CwllAGiVQk2Gemuw-5">
          <mxGeometry width="50" height="50" relative="1" as="geometry">
            <mxPoint x="473.18000000000006" y="370" as="sourcePoint" />
            <mxPoint x="429.18000000000006" y="348" as="targetPoint" />
          </mxGeometry>
        </mxCell>
        <mxCell id="o2s6CwllAGiVQk2Gemuw-67" value="3" style="edgeLabel;html=1;align=center;verticalAlign=middle;resizable=0;points=[];" vertex="1" connectable="0" parent="o2s6CwllAGiVQk2Gemuw-18">
          <mxGeometry x="0.0993" y="1" relative="1" as="geometry">
            <mxPoint as="offset" />
          </mxGeometry>
        </mxCell>
        <mxCell id="o2s6CwllAGiVQk2Gemuw-19" value="E" style="ellipse;whiteSpace=wrap;html=1;aspect=fixed;strokeColor=#000000;fillColor=#000000;fontColor=#FFFFFF;" vertex="1" parent="1">
          <mxGeometry x="490.00000000000006" y="382" width="20" height="20" as="geometry" />
        </mxCell>
        <mxCell id="o2s6CwllAGiVQk2Gemuw-20" value="" style="endArrow=none;html=1;rounded=0;strokeColor=#000000;startArrow=none;startFill=0;endFill=0;" edge="1" parent="1" source="o2s6CwllAGiVQk2Gemuw-21" target="o2s6CwllAGiVQk2Gemuw-19">
          <mxGeometry width="50" height="50" relative="1" as="geometry">
            <mxPoint x="440.18000000000006" y="431" as="sourcePoint" />
            <mxPoint x="468.18000000000006" y="382" as="targetPoint" />
          </mxGeometry>
        </mxCell>
        <mxCell id="o2s6CwllAGiVQk2Gemuw-68" value="2" style="edgeLabel;html=1;align=center;verticalAlign=middle;resizable=0;points=[];" vertex="1" connectable="0" parent="o2s6CwllAGiVQk2Gemuw-20">
          <mxGeometry x="0.211" relative="1" as="geometry">
            <mxPoint as="offset" />
          </mxGeometry>
        </mxCell>
        <mxCell id="o2s6CwllAGiVQk2Gemuw-21" value="" style="ellipse;whiteSpace=wrap;html=1;aspect=fixed;strokeColor=#000000;" vertex="1" parent="1">
          <mxGeometry x="450.00000000000006" y="430" width="20" height="20" as="geometry" />
        </mxCell>
        <mxCell id="o2s6CwllAGiVQk2Gemuw-22" value="" style="endArrow=none;html=1;rounded=0;strokeColor=#000000;" edge="1" parent="1" source="o2s6CwllAGiVQk2Gemuw-23" target="o2s6CwllAGiVQk2Gemuw-19">
          <mxGeometry width="50" height="50" relative="1" as="geometry">
            <mxPoint x="473.18000000000006" y="438" as="sourcePoint" />
            <mxPoint x="478.18000000000006" y="382" as="targetPoint" />
          </mxGeometry>
        </mxCell>
        <mxCell id="o2s6CwllAGiVQk2Gemuw-69" value="1" style="edgeLabel;html=1;align=center;verticalAlign=middle;resizable=0;points=[];" vertex="1" connectable="0" parent="o2s6CwllAGiVQk2Gemuw-22">
          <mxGeometry x="0.0004" relative="1" as="geometry">
            <mxPoint as="offset" />
          </mxGeometry>
        </mxCell>
        <mxCell id="o2s6CwllAGiVQk2Gemuw-23" value="" style="ellipse;whiteSpace=wrap;html=1;aspect=fixed;strokeColor=#000000;" vertex="1" parent="1">
          <mxGeometry x="540" y="430" width="20" height="20" as="geometry" />
        </mxCell>
        <mxCell id="o2s6CwllAGiVQk2Gemuw-24" value="" style="endArrow=none;html=1;rounded=0;strokeColor=#000000;startArrow=none;startFill=0;endFill=0;" edge="1" parent="1" source="o2s6CwllAGiVQk2Gemuw-25" target="o2s6CwllAGiVQk2Gemuw-9">
          <mxGeometry width="50" height="50" relative="1" as="geometry">
            <mxPoint x="270" y="400" as="sourcePoint" />
            <mxPoint x="436" y="389" as="targetPoint" />
          </mxGeometry>
        </mxCell>
        <mxCell id="o2s6CwllAGiVQk2Gemuw-48" value="2" style="edgeLabel;html=1;align=center;verticalAlign=middle;resizable=0;points=[];" vertex="1" connectable="0" parent="o2s6CwllAGiVQk2Gemuw-24">
          <mxGeometry x="-0.2089" y="-2" relative="1" as="geometry">
            <mxPoint x="-5" y="-4" as="offset" />
          </mxGeometry>
        </mxCell>
        <mxCell id="o2s6CwllAGiVQk2Gemuw-25" value="" style="ellipse;whiteSpace=wrap;html=1;aspect=fixed;strokeColor=#000000;labelBackgroundColor=none;fillColor=#000000;" vertex="1" parent="1">
          <mxGeometry x="210" y="430" width="20" height="20" as="geometry" />
        </mxCell>
        <mxCell id="o2s6CwllAGiVQk2Gemuw-26" value="" style="endArrow=none;html=1;rounded=0;strokeColor=#000000;startArrow=none;startFill=0;endFill=0;" edge="1" parent="1" source="o2s6CwllAGiVQk2Gemuw-27" target="o2s6CwllAGiVQk2Gemuw-9">
          <mxGeometry width="50" height="50" relative="1" as="geometry">
            <mxPoint x="280" y="400" as="sourcePoint" />
            <mxPoint x="275" y="391" as="targetPoint" />
          </mxGeometry>
        </mxCell>
        <mxCell id="o2s6CwllAGiVQk2Gemuw-49" value="2" style="edgeLabel;html=1;align=center;verticalAlign=middle;resizable=0;points=[];" vertex="1" connectable="0" parent="o2s6CwllAGiVQk2Gemuw-26">
          <mxGeometry x="-0.12" y="-1" relative="1" as="geometry">
            <mxPoint as="offset" />
          </mxGeometry>
        </mxCell>
        <mxCell id="o2s6CwllAGiVQk2Gemuw-27" value="" style="ellipse;whiteSpace=wrap;html=1;aspect=fixed;strokeColor=#000000;fillColor=#000000;" vertex="1" parent="1">
          <mxGeometry x="270" y="430" width="20" height="20" as="geometry" />
        </mxCell>
        <mxCell id="o2s6CwllAGiVQk2Gemuw-28" value="" style="endArrow=none;html=1;rounded=0;strokeColor=#70A0FF;endFill=0;" edge="1" parent="1" source="o2s6CwllAGiVQk2Gemuw-29" target="o2s6CwllAGiVQk2Gemuw-7">
          <mxGeometry width="50" height="50" relative="1" as="geometry">
            <mxPoint x="360" y="402" as="sourcePoint" />
            <mxPoint x="375" y="358" as="targetPoint" />
          </mxGeometry>
        </mxCell>
        <mxCell id="o2s6CwllAGiVQk2Gemuw-52" value="8" style="edgeLabel;html=1;align=center;verticalAlign=middle;resizable=0;points=[];fontColor=#70A0FF;" vertex="1" connectable="0" parent="o2s6CwllAGiVQk2Gemuw-28">
          <mxGeometry x="-0.1032" relative="1" as="geometry">
            <mxPoint as="offset" />
          </mxGeometry>
        </mxCell>
        <mxCell id="o2s6CwllAGiVQk2Gemuw-29" value="" style="ellipse;whiteSpace=wrap;html=1;aspect=fixed;strokeColor=#70A0FF;fillColor=#70A0FF;" vertex="1" parent="1">
          <mxGeometry x="390" y="382" width="20" height="20" as="geometry" />
        </mxCell>
        <mxCell id="o2s6CwllAGiVQk2Gemuw-30" value="" style="endArrow=none;html=1;rounded=0;strokeColor=#000000;startArrow=none;startFill=0;endFill=0;" edge="1" parent="1" source="o2s6CwllAGiVQk2Gemuw-31" target="o2s6CwllAGiVQk2Gemuw-29">
          <mxGeometry width="50" height="50" relative="1" as="geometry">
            <mxPoint x="327" y="460" as="sourcePoint" />
            <mxPoint x="363" y="412" as="targetPoint" />
          </mxGeometry>
        </mxCell>
        <mxCell id="o2s6CwllAGiVQk2Gemuw-55" value="3" style="edgeLabel;html=1;align=center;verticalAlign=middle;resizable=0;points=[];" vertex="1" connectable="0" parent="o2s6CwllAGiVQk2Gemuw-30">
          <mxGeometry x="0.0209" y="-2" relative="1" as="geometry">
            <mxPoint x="-2" as="offset" />
          </mxGeometry>
        </mxCell>
        <mxCell id="o2s6CwllAGiVQk2Gemuw-31" value="" style="ellipse;whiteSpace=wrap;html=1;aspect=fixed;strokeColor=#000000;fillColor=#000000;fontColor=#FFFFFF;" vertex="1" parent="1">
          <mxGeometry x="370" y="430" width="20" height="20" as="geometry" />
        </mxCell>
        <mxCell id="o2s6CwllAGiVQk2Gemuw-32" value="" style="endArrow=none;html=1;rounded=0;strokeColor=#70A0FF;" edge="1" parent="1" source="o2s6CwllAGiVQk2Gemuw-33" target="o2s6CwllAGiVQk2Gemuw-29">
          <mxGeometry width="50" height="50" relative="1" as="geometry">
            <mxPoint x="360" y="467" as="sourcePoint" />
            <mxPoint x="370" y="415" as="targetPoint" />
          </mxGeometry>
        </mxCell>
        <mxCell id="o2s6CwllAGiVQk2Gemuw-54" value="5" style="edgeLabel;html=1;align=center;verticalAlign=middle;resizable=0;points=[];fontColor=#70A0FF;" vertex="1" connectable="0" parent="o2s6CwllAGiVQk2Gemuw-32">
          <mxGeometry x="-0.0587" y="-2" relative="1" as="geometry">
            <mxPoint as="offset" />
          </mxGeometry>
        </mxCell>
        <mxCell id="o2s6CwllAGiVQk2Gemuw-33" value="&lt;font color=&quot;#ffffff&quot;&gt;E&lt;/font&gt;" style="ellipse;whiteSpace=wrap;html=1;aspect=fixed;strokeColor=#70A0FF;fillColor=#70A0FF;" vertex="1" parent="1">
          <mxGeometry x="415" y="430" width="20" height="20" as="geometry" />
        </mxCell>
        <mxCell id="o2s6CwllAGiVQk2Gemuw-36" value="" style="endArrow=none;html=1;rounded=0;strokeColor=#000000;startArrow=none;startFill=0;endFill=0;" edge="1" parent="1" source="o2s6CwllAGiVQk2Gemuw-38" target="o2s6CwllAGiVQk2Gemuw-31">
          <mxGeometry width="50" height="50" relative="1" as="geometry">
            <mxPoint x="385.4514204281411" y="460.09435999614993" as="sourcePoint" />
            <mxPoint x="402.5" y="449" as="targetPoint" />
          </mxGeometry>
        </mxCell>
        <mxCell id="o2s6CwllAGiVQk2Gemuw-56" value="3" style="edgeLabel;html=1;align=center;verticalAlign=middle;resizable=0;points=[];" vertex="1" connectable="0" parent="o2s6CwllAGiVQk2Gemuw-36">
          <mxGeometry x="-0.0829" y="-1" relative="1" as="geometry">
            <mxPoint as="offset" />
          </mxGeometry>
        </mxCell>
        <mxCell id="o2s6CwllAGiVQk2Gemuw-38" value="&lt;font color=&quot;#ffffff&quot;&gt;E&lt;/font&gt;" style="ellipse;whiteSpace=wrap;html=1;aspect=fixed;strokeColor=#000000;fillColor=#0A0A0A;" vertex="1" parent="1">
          <mxGeometry x="350" y="480" width="20" height="20" as="geometry" />
        </mxCell>
        <mxCell id="o2s6CwllAGiVQk2Gemuw-59" value="" style="endArrow=none;html=1;rounded=0;strokeColor=#000000;startArrow=none;startFill=0;endFill=0;" edge="1" parent="1" source="o2s6CwllAGiVQk2Gemuw-60" target="o2s6CwllAGiVQk2Gemuw-13">
          <mxGeometry width="50" height="50" relative="1" as="geometry">
            <mxPoint x="350" y="430" as="sourcePoint" />
            <mxPoint x="346" y="419" as="targetPoint" />
          </mxGeometry>
        </mxCell>
        <mxCell id="o2s6CwllAGiVQk2Gemuw-64" value="3" style="edgeLabel;html=1;align=center;verticalAlign=middle;resizable=0;points=[];" vertex="1" connectable="0" parent="o2s6CwllAGiVQk2Gemuw-59">
          <mxGeometry x="-0.0933" relative="1" as="geometry">
            <mxPoint as="offset" />
          </mxGeometry>
        </mxCell>
        <mxCell id="o2s6CwllAGiVQk2Gemuw-60" value="" style="ellipse;whiteSpace=wrap;html=1;aspect=fixed;strokeColor=#000000;" vertex="1" parent="1">
          <mxGeometry x="340" y="430" width="20" height="20" as="geometry" />
        </mxCell>
      </root>
    </mxGraphModel>
  </diagram>
</mxfile>
